<?xml version="1.0" encoding="UTF-8"?><svg id="_レイヤー_2" xmlns="http://www.w3.org/2000/svg" viewBox="0 0 535.14 165.25"><defs><style>.cls-1{fill:#7fd120;}.cls-2{fill:#e23a00;}.cls-3{fill:#2b7bad;}.cls-4{fill:#3d2a0e;}</style></defs><g id="_レイヤー_1-2"><path class="cls-4" d="m392.81,80.25c-1.38,0-2.5,1.12-2.5,2.5v17.5h-17.5c-1.38,0-2.5,1.12-2.5,2.5s1.12,2.5,2.5,2.5h20c1.38,0,2.5-1.12,2.5-2.5v-20c0-1.38-1.12-2.5-2.5-2.5Z"/><path class="cls-4" d="m352.81,100.25h-37.5v-15h17.5c1.38,0,2.5-1.12,2.5-2.5v-20c0-1.38-1.12-2.5-2.5-2.5h-20c-1.38,0-2.5,1.12-2.5,2.5s1.12,2.5,2.5,2.5h17.5v15h-35v-35h75v17.5c0,1.38,1.12,2.5,2.5,2.5s2.5-1.12,2.5-2.5v-20c0-1.38-1.12-2.5-2.5-2.5h-77.5v-17.5c0-1.38-1.12-2.5-2.5-2.5h-40c-.39,0-.77.09-1.12.26l-39.47,19.74h-79.41c-1.38,0-2.5,1.12-2.5,2.5s1.12,2.5,2.5,2.5h80c.39,0,.77-.09,1.12-.26l39.47-19.74h36.91v15h-37.49c-1.38,0-2.5,1.12-2.5,2.5v28h-101.76c-1.38,0-2.5,1.12-2.5,2.5s1.12,2.5,2.5,2.5h104.26c1.38,0,2.5-1.12,2.5-2.5v-28h34.99v37.5c0,1.38,1.12,2.5,2.5,2.5h17.5v15h-37.5c-1.38,0-2.5,1.12-2.5,2.5s1.12,2.5,2.5,2.5h77.5v15h-115v-17.5c0-1.38-1.12-2.5-2.5-2.5h-111.75l-9.5-35.24L132.35,3.3c.26-.76.13-1.6-.34-2.26s-1.23-1.04-2.03-1.04h-60.28c-.81,0-1.56.39-2.03,1.04s-.6,1.49-.34,2.26l20.78,61.71-5.9,21.9-19.15-21.14c-.49-.54-1.18-.85-1.91-.82-.73.02-1.41.35-1.87.91l-11.78,14.25-13.74-14.39c-.49-.52-1.18-.8-1.9-.77-.71.03-1.38.35-1.84.91L.57,101.51c-.62.75-.75,1.78-.33,2.66s1.29,1.43,2.26,1.43h74.67l-9.89,36.68c-.2.75-.04,1.55.43,2.17s1.21.98,1.98.98h60.28c.78,0,1.51-.36,1.98-.98s.63-1.42.43-2.17l-9.98-37.03h107.9v17.5c0,1.38,1.12,2.5,2.5,2.5h120c1.38,0,2.5-1.12,2.5-2.5v-20c0-1.38-1.12-2.5-2.5-2.5Z"/><path class="cls-4" d="m441.39,41.79c-1.38,0-2.5,1.12-2.5,2.5v55.96h-22.36l13.39-15.08c.92-1.03.82-2.61-.21-3.53-1.03-.92-2.61-.82-3.53.21l-17.08,19.25c-.65.74-.81,1.79-.41,2.68.4.9,1.3,1.48,2.28,1.48h30.42c1.38,0,2.5-1.12,2.5-2.5v-58.46c0-1.38-1.12-2.5-2.5-2.5Z"/><path class="cls-4" d="m534.4,71.97c-.98-.97-2.56-.96-3.54.01l-23.78,23.98v-13.36c0-.66-.26-1.3-.73-1.77-.47-.47-1.1-.73-1.77-.73h-8.22c-.67,0-1.32.27-1.79.76l-14.87,15.23c-2.31,2.55-5.6,4.02-9.03,4.02-6.75,0-12.24-5.55-12.24-12.38s5.49-12.37,12.24-12.37c2.31,0,4.54.65,6.47,1.87l-8.28,8.55c-.96.99-.93,2.58.06,3.54.99.96,2.58.93,3.54-.06l10.2-10.54c.46-.48.71-1.12.7-1.78-.01-.66-.29-1.29-.76-1.76-3.23-3.11-7.46-4.82-11.92-4.82-9.51,0-17.24,7.79-17.24,17.37s7.73,17.38,17.24,17.38c4.83,0,9.47-2.06,12.67-5.59l14.07-14.4h4.67s0,16.93,0,16.93c0,1.01.61,1.93,1.55,2.31.94.39,2.01.17,2.73-.55l28.05-28.29c.97-.98.96-2.56-.01-3.54Z"/><path class="cls-3" d="m211.06,122.75c0-1.38-1.12-2.5-2.5-2.5h-60c-1.38,0-2.5,1.12-2.5,2.5s1.12,2.5,2.5,2.5h60c1.38,0,2.5-1.12,2.5-2.5Z"/><path class="cls-3" d="m272.39,140.25h-59.15c-1.38,0-2.5,1.12-2.5,2.5s1.12,2.5,2.5,2.5h59.15c1.38,0,2.5-1.12,2.5-2.5s-1.12-2.5-2.5-2.5Z"/><path class="cls-3" d="m191.06,142.75c0-1.38-1.12-2.5-2.5-2.5h-20c-1.38,0-2.5,1.12-2.5,2.5s1.12,2.5,2.5,2.5h20c1.38,0,2.5-1.12,2.5-2.5Z"/><path class="cls-3" d="m208.56,160.25h-20c-1.38,0-2.5,1.12-2.5,2.5s1.12,2.5,2.5,2.5h20c1.38,0,2.5-1.12,2.5-2.5s-1.12-2.5-2.5-2.5Z"/><path class="cls-3" d="m252.81,160.25h-20c-1.38,0-2.5,1.12-2.5,2.5s1.12,2.5,2.5,2.5h20c1.38,0,2.5-1.12,2.5-2.5s-1.12-2.5-2.5-2.5Z"/><polygon class="cls-1" points="32.09 71.21 44.3 83.99 30.57 100.6 7.81 100.6 32.09 71.21"/><polygon class="cls-1" points="37.06 100.6 61.3 71.27 80.66 92.65 78.52 100.6 37.06 100.6"/><path class="cls-2" d="m126.71,140.43h-53.75l20.18-74.85c.13-.48.11-.98-.04-1.45L73.18,5h53.32l-19.91,59.13c-.16.47-.17.97-.04,1.45l9.35,34.67h-12.57c-1.38,0-2.5,1.12-2.5,2.5s1.12,2.5,2.5,2.5h13.92l9.48,35.18Z"/></g></svg>